<?xml version="1.0" encoding="UTF-8" standalone="no"?>
<svg
   xmlns:dc="http://purl.org/dc/elements/1.1/"
   xmlns:cc="http://creativecommons.org/ns#"
   xmlns:rdf="http://www.w3.org/1999/02/22-rdf-syntax-ns#"
   xmlns:svg="http://www.w3.org/2000/svg"
   xmlns="http://www.w3.org/2000/svg"
   viewBox="0 0 450 630"
   height="630"
   width="450"
   xml:space="preserve"
   version="1.1"
   id="svg2"><metadata
     id="metadata8"><rdf:RDF><cc:Work
         rdf:about=""><dc:format>image/svg+xml</dc:format><dc:type
           rdf:resource="http://purl.org/dc/dcmitype/StillImage" /></cc:Work></rdf:RDF></metadata><defs
     id="defs6" /><g
     transform="matrix(1.25,0,0,-1.25,0,630)"
     id="g10"><g
       transform="scale(0.1,0.1)"
       id="g12"><path
         id="path14"
         style="fill:none;stroke:#000000;stroke-width:5;stroke-linecap:butt;stroke-linejoin:miter;stroke-miterlimit:10;stroke-dasharray:none;stroke-opacity:1"
         d="m 693,2850 31.5,0 m 2688.5,0 -31.5,0" /><g
         transform="scale(10,10)"
         id="g16"><text
           id="text18"
           style="font-variant:normal;font-weight:normal;font-size:11px;font-family:Helvetica;-inkscape-font-specification:Helvetica;writing-mode:lr-tb;fill:#000000;fill-opacity:1;fill-rule:nonzero;stroke:none"
           transform="matrix(1,0,0,-1,28.459,281.335)"><tspan
             id="tspan20"
             y="0"
             x="0 3.6630001 9.7790003 15.895 22.011 28.127001">-71000</tspan></text>
</g><path
         id="path22"
         style="fill:none;stroke:#000000;stroke-width:5;stroke-linecap:butt;stroke-linejoin:miter;stroke-miterlimit:10;stroke-dasharray:none;stroke-opacity:1"
         d="m 693,3493 31.5,0 m 2688.5,0 -31.5,0" /><g
         transform="scale(10,10)"
         id="g24"><text
           id="text26"
           style="font-variant:normal;font-weight:normal;font-size:11px;font-family:Helvetica;-inkscape-font-specification:Helvetica;writing-mode:lr-tb;fill:#000000;fill-opacity:1;fill-rule:nonzero;stroke:none"
           transform="matrix(1,0,0,-1,28.459,345.635)"><tspan
             id="tspan28"
             y="0"
             x="0 3.6630001 9.7790003 15.895 22.011 28.127001">-70750</tspan></text>
</g><path
         id="path30"
         style="fill:none;stroke:#000000;stroke-width:5;stroke-linecap:butt;stroke-linejoin:miter;stroke-miterlimit:10;stroke-dasharray:none;stroke-opacity:1"
         d="m 693,4136.5 31.5,0 m 2688.5,0 -31.5,0" /><g
         transform="scale(10,10)"
         id="g32"><text
           id="text34"
           style="font-variant:normal;font-weight:normal;font-size:11px;font-family:Helvetica;-inkscape-font-specification:Helvetica;writing-mode:lr-tb;fill:#000000;fill-opacity:1;fill-rule:nonzero;stroke:none"
           transform="matrix(1,0,0,-1,28.459,409.985)"><tspan
             id="tspan36"
             y="0"
             x="0 3.6630001 9.7790003 15.895 22.011 28.127001">-70500</tspan></text>
</g><path
         id="path38"
         style="fill:none;stroke:#000000;stroke-width:5;stroke-linecap:butt;stroke-linejoin:miter;stroke-miterlimit:10;stroke-dasharray:none;stroke-opacity:1"
         d="m 693,4779.5 31.5,0 m 2688.5,0 -31.5,0" /><g
         transform="scale(10,10)"
         id="g40"><text
           id="text42"
           style="font-variant:normal;font-weight:normal;font-size:11px;font-family:Helvetica;-inkscape-font-specification:Helvetica;writing-mode:lr-tb;fill:#000000;fill-opacity:1;fill-rule:nonzero;stroke:none"
           transform="matrix(1,0,0,-1,28.459,474.285)"><tspan
             id="tspan44"
             y="0"
             x="0 3.6630001 9.7790003 15.895 22.011 28.127001">-70250</tspan></text>
</g><path
         id="path46"
         style="fill:none;stroke:#000000;stroke-width:5;stroke-linecap:butt;stroke-linejoin:miter;stroke-miterlimit:10;stroke-dasharray:none;stroke-opacity:1"
         d="m 693,2850 0,31.5 m 0,2026.5 0,-31.5" /><g
         transform="scale(10,10)"
         id="g48"><text
           id="text50"
           style="font-variant:normal;font-weight:normal;font-size:11px;font-family:Helvetica;-inkscape-font-specification:Helvetica;writing-mode:lr-tb;fill:#000000;fill-opacity:1;fill-rule:nonzero;stroke:none"
           transform="matrix(1,0,0,-1,52.1797,270.335)"><tspan
             id="tspan52"
             y="0"
             x="0 3.6630001 9.7790003 15.895 22.011 28.127001">-71000</tspan></text>
</g><path
         id="path54"
         style="fill:none;stroke:#000000;stroke-width:5;stroke-linecap:butt;stroke-linejoin:miter;stroke-miterlimit:10;stroke-dasharray:none;stroke-opacity:1"
         d="m 1543,2850 0,31.5 m 0,2026.5 0,-31.5" /><g
         transform="scale(10,10)"
         id="g56"><text
           id="text58"
           style="font-variant:normal;font-weight:normal;font-size:11px;font-family:Helvetica;-inkscape-font-specification:Helvetica;writing-mode:lr-tb;fill:#000000;fill-opacity:1;fill-rule:nonzero;stroke:none"
           transform="matrix(1,0,0,-1,137.18,270.335)"><tspan
             id="tspan60"
             y="0"
             x="0 3.6630001 9.7790003 15.895 22.011 28.127001">-70750</tspan></text>
</g><path
         id="path62"
         style="fill:none;stroke:#000000;stroke-width:5;stroke-linecap:butt;stroke-linejoin:miter;stroke-miterlimit:10;stroke-dasharray:none;stroke-opacity:1"
         d="m 2393,2850 0,31.5 m 0,2026.5 0,-31.5" /><g
         transform="scale(10,10)"
         id="g64"><text
           id="text66"
           style="font-variant:normal;font-weight:normal;font-size:11px;font-family:Helvetica;-inkscape-font-specification:Helvetica;writing-mode:lr-tb;fill:#000000;fill-opacity:1;fill-rule:nonzero;stroke:none"
           transform="matrix(1,0,0,-1,222.18,270.335)"><tspan
             id="tspan68"
             y="0"
             x="0 3.6630001 9.7790003 15.895 22.011 28.127001">-70500</tspan></text>
</g><path
         id="path70"
         style="fill:none;stroke:#000000;stroke-width:5;stroke-linecap:butt;stroke-linejoin:miter;stroke-miterlimit:10;stroke-dasharray:none;stroke-opacity:1"
         d="m 3243,2850 0,31.5 m 0,2026.5 0,-31.5" /><g
         transform="scale(10,10)"
         id="g72"><text
           id="text74"
           style="font-variant:normal;font-weight:normal;font-size:11px;font-family:Helvetica;-inkscape-font-specification:Helvetica;writing-mode:lr-tb;fill:#000000;fill-opacity:1;fill-rule:nonzero;stroke:none"
           transform="matrix(1,0,0,-1,307.18,270.335)"><tspan
             id="tspan76"
             y="0"
             x="0 3.6630001 9.7790003 15.895 22.011 28.127001">-70250</tspan></text>
</g><path
         id="path78"
         style="fill:none;stroke:#000000;stroke-width:5;stroke-linecap:butt;stroke-linejoin:miter;stroke-miterlimit:10;stroke-dasharray:none;stroke-opacity:1"
         d="m 693,2850 2720,0 0,2058 -2720,0 0,-2058 z" /><g
         transform="scale(10,10)"
         id="g80"><text
           id="text82"
           style="font-variant:normal;font-weight:normal;font-size:15px;font-family:Helvetica;-inkscape-font-specification:Helvetica;writing-mode:lr-tb;fill:#000000;fill-opacity:1;fill-rule:nonzero;stroke:none"
           transform="matrix(0,1,1,0,16,316.202)"><tspan
             id="tspan84"
             y="0"
             x="0 8.3400002 16.68 25.02 35.025002 43.365002 50.865002 55.035 63.375 68.370003 71.699997 80.040001 85.035004 89.205002 93.375 105.87 114.21 122.55 126.72 130.89 139.23">LogPosterior [Mod. 2]</tspan></text>
<text
           id="text86"
           style="font-variant:normal;font-weight:normal;font-size:15px;font-family:Helvetica;-inkscape-font-specification:Helvetica;writing-mode:lr-tb;fill:#000000;fill-opacity:1;fill-rule:nonzero;stroke:none"
           transform="matrix(1,0,0,-1,133.602,252.5)"><tspan
             id="tspan88"
             y="0"
             x="0 8.3400002 16.68 25.02 35.025002 43.365002 50.865002 55.035 63.375 68.370003 71.699997 80.040001 85.035004 89.205002 93.375 105.87 114.21 122.55 126.72 130.89 139.23">LogPosterior [Mod. 1]</tspan></text>
<text
           id="text90"
           style="font-variant:normal;font-weight:normal;font-size:11px;font-family:Helvetica;-inkscape-font-specification:Helvetica;writing-mode:lr-tb;fill:#000000;fill-opacity:1;fill-rule:nonzero;stroke:none"
           transform="matrix(1,0,0,-1,151.3446,478.485)"><tspan
             id="tspan92"
             y="0"
             x="0 7.9419999 14.058 20.174 26.290001 32.405998 35.464001 41.580002 44.638 47.695999 54.417 60.533001 62.974998 65.417 68.474998 75.811996 84.370003 90.486 93.543999 99.043999 105.16 114.323 120.439 122.881 125.323 131.439 137.55499">Round 1: Full SO3 sampling </tspan></text>
</g><path
         id="path94"
         style="fill:#ff0000;fill-opacity:1;fill-rule:nonzero;stroke:none"
         d="m 1062.5,3166.5 c 0,17.39 -14.11,31.5 -31.5,31.5 -17.39,0 -31.5,-14.11 -31.5,-31.5 0,-17.39 14.11,-31.5 31.5,-31.5 17.39,0 31.5,14.11 31.5,31.5" /><path
         id="path96"
         style="fill:#ff0000;fill-opacity:1;fill-rule:nonzero;stroke:none"
         d="m 2061,3889 c 0,17.39 -14.11,31.5 -31.5,31.5 -17.39,0 -31.5,-14.11 -31.5,-31.5 0,-17.39 14.11,-31.5 31.5,-31.5 17.39,0 31.5,14.11 31.5,31.5" /><path
         id="path98"
         style="fill:#ff0000;fill-opacity:1;fill-rule:nonzero;stroke:none"
         d="m 1324,3358 c 0,17.39 -14.11,31.5 -31.5,31.5 -17.39,0 -31.5,-14.11 -31.5,-31.5 0,-17.39 14.11,-31.5 31.5,-31.5 17.39,0 31.5,14.11 31.5,31.5" /><path
         id="path100"
         style="fill:#ff0000;fill-opacity:1;fill-rule:nonzero;stroke:none"
         d="m 1469.5,3556.5 c 0,17.39 -14.11,31.5 -31.5,31.5 -17.39,0 -31.5,-14.11 -31.5,-31.5 0,-17.39 14.11,-31.5 31.5,-31.5 17.39,0 31.5,14.11 31.5,31.5" /><path
         id="path102"
         style="fill:#ff0000;fill-opacity:1;fill-rule:nonzero;stroke:none"
         d="m 1821,3600.5 c 0,17.39 -14.11,31.5 -31.5,31.5 -17.39,0 -31.5,-14.11 -31.5,-31.5 0,-17.39 14.11,-31.5 31.5,-31.5 17.39,0 31.5,14.11 31.5,31.5" /><path
         id="path104"
         style="fill:#ff0000;fill-opacity:1;fill-rule:nonzero;stroke:none"
         d="m 1489.5,3407.5 c 0,17.39 -14.11,31.5 -31.5,31.5 -17.39,0 -31.5,-14.11 -31.5,-31.5 0,-17.39 14.11,-31.5 31.5,-31.5 17.39,0 31.5,14.11 31.5,31.5" /><path
         id="path106"
         style="fill:#ff0000;fill-opacity:1;fill-rule:nonzero;stroke:none"
         d="m 2640,4223.5 c 0,17.39 -14.11,31.5 -31.5,31.5 -17.39,0 -31.5,-14.11 -31.5,-31.5 0,-17.39 14.11,-31.5 31.5,-31.5 17.39,0 31.5,14.11 31.5,31.5" /><path
         id="path108"
         style="fill:#ff0000;fill-opacity:1;fill-rule:nonzero;stroke:none"
         d="m 1976.5,3627 c 0,17.39 -14.11,31.5 -31.5,31.5 -17.39,0 -31.5,-14.11 -31.5,-31.5 0,-17.39 14.11,-31.5 31.5,-31.5 17.39,0 31.5,14.11 31.5,31.5" /><path
         id="path110"
         style="fill:#ff0000;fill-opacity:1;fill-rule:nonzero;stroke:none"
         d="m 2682,4011.5 c 0,17.39 -14.11,31.5 -31.5,31.5 -17.39,0 -31.5,-14.11 -31.5,-31.5 0,-17.39 14.11,-31.5 31.5,-31.5 17.39,0 31.5,14.11 31.5,31.5" /><path
         id="path112"
         style="fill:#ff0000;fill-opacity:1;fill-rule:nonzero;stroke:none"
         d="m 1064,3121.5 c 0,17.39 -14.11,31.5 -31.5,31.5 -17.39,0 -31.5,-14.11 -31.5,-31.5 0,-17.39 14.11,-31.5 31.5,-31.5 17.39,0 31.5,14.11 31.5,31.5" /><path
         id="path114"
         style="fill:#ff0000;fill-opacity:1;fill-rule:nonzero;stroke:none"
         d="m 2896,4267.5 c 0,17.39 -14.11,31.5 -31.5,31.5 -17.39,0 -31.5,-14.11 -31.5,-31.5 0,-17.39 14.11,-31.5 31.5,-31.5 17.39,0 31.5,14.11 31.5,31.5" /><path
         id="path116"
         style="fill:#ff0000;fill-opacity:1;fill-rule:nonzero;stroke:none"
         d="m 1632,3717.5 c 0,17.39 -14.11,31.5 -31.5,31.5 -17.39,0 -31.5,-14.11 -31.5,-31.5 0,-17.39 14.11,-31.5 31.5,-31.5 17.39,0 31.5,14.11 31.5,31.5" /><path
         id="path118"
         style="fill:#ff0000;fill-opacity:1;fill-rule:nonzero;stroke:none"
         d="m 1752,3537.5 c 0,17.39 -14.11,31.5 -31.5,31.5 -17.39,0 -31.5,-14.11 -31.5,-31.5 0,-17.39 14.11,-31.5 31.5,-31.5 17.39,0 31.5,14.11 31.5,31.5" /><path
         id="path120"
         style="fill:#ff0000;fill-opacity:1;fill-rule:nonzero;stroke:none"
         d="m 2469,4031.5 c 0,17.39 -14.11,31.5 -31.5,31.5 -17.39,0 -31.5,-14.11 -31.5,-31.5 0,-17.39 14.11,-31.5 31.5,-31.5 17.39,0 31.5,14.11 31.5,31.5" /><path
         id="path122"
         style="fill:#ff0000;fill-opacity:1;fill-rule:nonzero;stroke:none"
         d="m 1892.5,3718 c 0,17.39 -14.11,31.5 -31.5,31.5 -17.39,0 -31.5,-14.11 -31.5,-31.5 0,-17.39 14.11,-31.5 31.5,-31.5 17.39,0 31.5,14.11 31.5,31.5" /><path
         id="path124"
         style="fill:#ff0000;fill-opacity:1;fill-rule:nonzero;stroke:none"
         d="m 2509.5,4193.5 c 0,17.39 -14.11,31.5 -31.5,31.5 -17.39,0 -31.5,-14.11 -31.5,-31.5 0,-17.39 14.11,-31.5 31.5,-31.5 17.39,0 31.5,14.11 31.5,31.5" /><path
         id="path126"
         style="fill:#ff0000;fill-opacity:1;fill-rule:nonzero;stroke:none"
         d="m 1493,3415.5 c 0,17.39 -14.11,31.5 -31.5,31.5 -17.39,0 -31.5,-14.11 -31.5,-31.5 0,-17.39 14.11,-31.5 31.5,-31.5 17.39,0 31.5,14.11 31.5,31.5" /><path
         id="path128"
         style="fill:#ff0000;fill-opacity:1;fill-rule:nonzero;stroke:none"
         d="m 2142,3890.5 c 0,17.39 -14.11,31.5 -31.5,31.5 -17.39,0 -31.5,-14.11 -31.5,-31.5 0,-17.39 14.11,-31.5 31.5,-31.5 17.39,0 31.5,14.11 31.5,31.5" /><path
         id="path130"
         style="fill:#ff0000;fill-opacity:1;fill-rule:nonzero;stroke:none"
         d="m 1316.5,3453 c 0,17.39 -14.11,31.5 -31.5,31.5 -17.39,0 -31.5,-14.11 -31.5,-31.5 0,-17.39 14.11,-31.5 31.5,-31.5 17.39,0 31.5,14.11 31.5,31.5" /><path
         id="path132"
         style="fill:#ff0000;fill-opacity:1;fill-rule:nonzero;stroke:none"
         d="m 1516.5,3598.5 c 0,17.39 -14.11,31.5 -31.5,31.5 -17.39,0 -31.5,-14.11 -31.5,-31.5 0,-17.39 14.11,-31.5 31.5,-31.5 17.39,0 31.5,14.11 31.5,31.5" /><path
         id="path134"
         style="fill:#ff0000;fill-opacity:1;fill-rule:nonzero;stroke:none"
         d="m 3164.5,4821.5 c 0,17.39 -14.11,31.5 -31.5,31.5 -17.39,0 -31.5,-14.11 -31.5,-31.5 0,-17.39 14.11,-31.5 31.5,-31.5 17.39,0 31.5,14.11 31.5,31.5" /><g
         transform="scale(10,10)"
         id="g136"><text
           id="text138"
           style="font-variant:normal;font-weight:normal;font-size:11px;font-family:Helvetica;-inkscape-font-specification:Helvetica;writing-mode:lr-tb;fill:#000000;fill-opacity:1;fill-rule:nonzero;stroke:none"
           transform="matrix(1,0,0,-1,87.1195,467.485)"><tspan
             id="tspan140"
             y="0"
             x="0 7.9419999 14.058 20.174 26.290001 32.405998 35.464001 41.580002 44.638 47.695999 53.812 59.928001 66.043999 69.707001 72.764999 78.880997 84.997002 90.497002 93.555 96.612999 102.729 106.392 108.834 114.95 121.066 124.124 130.24001 133.298 135.74001 141.856 147.972 151.03 157.146 160.20399 163.26199 171.20399 177.32001 183.436 189.552 195.668 198.726">Round 2: near best orientation of Round 1</tspan></text>
</g><path
         id="path142"
         style="fill:#0000ff;fill-opacity:1;fill-rule:nonzero;stroke:none"
         d="m 1156.5,3256.5 c 0,17.39 -14.11,31.5 -31.5,31.5 -17.39,0 -31.5,-14.11 -31.5,-31.5 0,-17.39 14.11,-31.5 31.5,-31.5 17.39,0 31.5,14.11 31.5,31.5" /><path
         id="path144"
         style="fill:#0000ff;fill-opacity:1;fill-rule:nonzero;stroke:none"
         d="m 2187,4015.5 c 0,17.39 -14.11,31.5 -31.5,31.5 -17.39,0 -31.5,-14.11 -31.5,-31.5 0,-17.39 14.11,-31.5 31.5,-31.5 17.39,0 31.5,14.11 31.5,31.5" /><path
         id="path146"
         style="fill:#0000ff;fill-opacity:1;fill-rule:nonzero;stroke:none"
         d="m 1397,3393 c 0,17.39 -14.11,31.5 -31.5,31.5 -17.39,0 -31.5,-14.11 -31.5,-31.5 0,-17.39 14.11,-31.5 31.5,-31.5 17.39,0 31.5,14.11 31.5,31.5" /><path
         id="path148"
         style="fill:#0000ff;fill-opacity:1;fill-rule:nonzero;stroke:none"
         d="m 1754.5,3621.5 c 0,17.39 -14.11,31.5 -31.5,31.5 -17.39,0 -31.5,-14.11 -31.5,-31.5 0,-17.39 14.11,-31.5 31.5,-31.5 17.39,0 31.5,14.11 31.5,31.5" /><path
         id="path150"
         style="fill:#0000ff;fill-opacity:1;fill-rule:nonzero;stroke:none"
         d="m 1995,3672 c 0,17.39 -14.11,31.5 -31.5,31.5 -17.39,0 -31.5,-14.11 -31.5,-31.5 0,-17.39 14.11,-31.5 31.5,-31.5 17.39,0 31.5,14.11 31.5,31.5" /><path
         id="path152"
         style="fill:#0000ff;fill-opacity:1;fill-rule:nonzero;stroke:none"
         d="m 1921,3616 c 0,17.39 -14.11,31.5 -31.5,31.5 -17.39,0 -31.5,-14.11 -31.5,-31.5 0,-17.39 14.11,-31.5 31.5,-31.5 17.39,0 31.5,14.11 31.5,31.5" /><path
         id="path154"
         style="fill:#0000ff;fill-opacity:1;fill-rule:nonzero;stroke:none"
         d="m 2909,4382.5 c 0,17.39 -14.11,31.5 -31.5,31.5 -17.39,0 -31.5,-14.11 -31.5,-31.5 0,-17.39 14.11,-31.5 31.5,-31.5 17.39,0 31.5,14.11 31.5,31.5" /><path
         id="path156"
         style="fill:#0000ff;fill-opacity:1;fill-rule:nonzero;stroke:none"
         d="m 2095,3675 c 0,17.39 -14.11,31.5 -31.5,31.5 -17.39,0 -31.5,-14.11 -31.5,-31.5 0,-17.39 14.11,-31.5 31.5,-31.5 17.39,0 31.5,14.11 31.5,31.5" /><path
         id="path158"
         style="fill:#0000ff;fill-opacity:1;fill-rule:nonzero;stroke:none"
         d="m 3113,4368 c 0,17.39 -14.11,31.5 -31.5,31.5 -17.39,0 -31.5,-14.11 -31.5,-31.5 0,-17.39 14.11,-31.5 31.5,-31.5 17.39,0 31.5,14.11 31.5,31.5" /><path
         id="path160"
         style="fill:#0000ff;fill-opacity:1;fill-rule:nonzero;stroke:none"
         d="m 1073,3186 c 0,17.39 -14.11,31.5 -31.5,31.5 -17.39,0 -31.5,-14.11 -31.5,-31.5 0,-17.39 14.11,-31.5 31.5,-31.5 17.39,0 31.5,14.11 31.5,31.5" /><path
         id="path162"
         style="fill:#0000ff;fill-opacity:1;fill-rule:nonzero;stroke:none"
         d="m 3101.5,4350 c 0,17.39 -14.11,31.5 -31.5,31.5 -17.39,0 -31.5,-14.11 -31.5,-31.5 0,-17.39 14.11,-31.5 31.5,-31.5 17.39,0 31.5,14.11 31.5,31.5" /><path
         id="path164"
         style="fill:#0000ff;fill-opacity:1;fill-rule:nonzero;stroke:none"
         d="m 1667,3834 c 0,17.39 -14.11,31.5 -31.5,31.5 -17.39,0 -31.5,-14.11 -31.5,-31.5 0,-17.39 14.11,-31.5 31.5,-31.5 17.39,0 31.5,14.11 31.5,31.5" /><path
         id="path166"
         style="fill:#0000ff;fill-opacity:1;fill-rule:nonzero;stroke:none"
         d="m 1882,3601.5 c 0,17.39 -14.11,31.5 -31.5,31.5 -17.39,0 -31.5,-14.11 -31.5,-31.5 0,-17.39 14.11,-31.5 31.5,-31.5 17.39,0 31.5,14.11 31.5,31.5" /><path
         id="path168"
         style="fill:#0000ff;fill-opacity:1;fill-rule:nonzero;stroke:none"
         d="m 2642.5,4139 c 0,17.39 -14.11,31.5 -31.5,31.5 -17.39,0 -31.5,-14.11 -31.5,-31.5 0,-17.39 14.11,-31.5 31.5,-31.5 17.39,0 31.5,14.11 31.5,31.5" /><path
         id="path170"
         style="fill:#0000ff;fill-opacity:1;fill-rule:nonzero;stroke:none"
         d="m 2054.5,3801 c 0,17.39 -14.11,31.5 -31.5,31.5 -17.39,0 -31.5,-14.11 -31.5,-31.5 0,-17.39 14.11,-31.5 31.5,-31.5 17.39,0 31.5,14.11 31.5,31.5" /><path
         id="path172"
         style="fill:#0000ff;fill-opacity:1;fill-rule:nonzero;stroke:none"
         d="m 2679.5,4301.5 c 0,17.39 -14.11,31.5 -31.5,31.5 -17.39,0 -31.5,-14.11 -31.5,-31.5 0,-17.39 14.11,-31.5 31.5,-31.5 17.39,0 31.5,14.11 31.5,31.5" /><path
         id="path174"
         style="fill:#0000ff;fill-opacity:1;fill-rule:nonzero;stroke:none"
         d="m 1648.5,3447.5 c 0,17.39 -14.11,31.5 -31.5,31.5 -17.39,0 -31.5,-14.11 -31.5,-31.5 0,-17.39 14.11,-31.5 31.5,-31.5 17.39,0 31.5,14.11 31.5,31.5" /><path
         id="path176"
         style="fill:#0000ff;fill-opacity:1;fill-rule:nonzero;stroke:none"
         d="m 2276,4002.5 c 0,17.39 -14.11,31.5 -31.5,31.5 -17.39,0 -31.5,-14.11 -31.5,-31.5 0,-17.39 14.11,-31.5 31.5,-31.5 17.39,0 31.5,14.11 31.5,31.5" /><path
         id="path178"
         style="fill:#0000ff;fill-opacity:1;fill-rule:nonzero;stroke:none"
         d="m 1578,3570 c 0,17.39 -14.11,31.5 -31.5,31.5 -17.39,0 -31.5,-14.11 -31.5,-31.5 0,-17.39 14.11,-31.5 31.5,-31.5 17.39,0 31.5,14.11 31.5,31.5" /><path
         id="path180"
         style="fill:#0000ff;fill-opacity:1;fill-rule:nonzero;stroke:none"
         d="m 1995,3764.5 c 0,17.39 -14.11,31.5 -31.5,31.5 -17.39,0 -31.5,-14.11 -31.5,-31.5 0,-17.39 14.11,-31.5 31.5,-31.5 17.39,0 31.5,14.11 31.5,31.5" /><path
         id="path182"
         style="fill:#0000ff;fill-opacity:1;fill-rule:nonzero;stroke:none"
         d="m 3164.5,4711.5 c 0,17.39 -14.11,31.5 -31.5,31.5 -17.39,0 -31.5,-14.11 -31.5,-31.5 0,-17.39 14.11,-31.5 31.5,-31.5 17.39,0 31.5,14.11 31.5,31.5" /><path
         id="path184"
         style="fill:none;stroke:#000000;stroke-width:5;stroke-linecap:butt;stroke-linejoin:miter;stroke-miterlimit:10;stroke-dasharray:none;stroke-opacity:1"
         d="m 693,2850 27.5,21 27.5,20.5 27.5,21 27.5,20.5 27.5,21 27.5,20.5 27.5,21 27.5,21 27.5,20.5 27,21 27.5,20.5 27.5,21 27.5,20.5 27.5,21 27.5,21 27.5,20.5 27.5,21 27.5,20.5 27.5,21 27.5,21 27.5,20.5 27.5,21 27.5,20.5 27.5,21 27.5,20.5 27.5,21 27.5,21 27.5,20.5 27.5,21 27,20.5 27.5,21 27.5,20.5 27.5,21 27.5,21 27.5,20.5 27.5,21 27.5,20.5 27.5,21 27.5,20.5 27.5,21 27.5,21 27.5,20.5 27.5,21 27.5,20.5 27.5,21 27.5,20.5 27.5,21 27.5,21 27.5,20.5 27,21 27.5,20.5 27.5,21 27.5,21 27.5,20.5 27.5,21 27.5,20.5 27.5,21 27.5,20.5 27.5,21 27.5,21 27.5,20.5 27.5,21 27.5,20.5 27.5,21 27.5,20.5 27.5,21 27.5,21 27.5,20.5 27.5,21 27,20.5 27.5,21 27.5,20.5 27.5,21 27.5,21 27.5,20.5 27.5,21 27.5,20.5 27.5,21 27.5,20.5 27.5,21 27.5,21 27.5,20.5 27.5,21 27.5,20.5 27.5,21 27.5,21 27.5,20.5 27.5,21 27.5,20.5 27,21 27.5,20.5 27.5,21 27.5,21 27.5,20.5 27.5,21 27.5,20.5 27.5,21 27.5,20.5 27.5,21" /><path
         id="path186"
         style="fill:none;stroke:#000000;stroke-width:5;stroke-linecap:butt;stroke-linejoin:miter;stroke-miterlimit:10;stroke-dasharray:none;stroke-opacity:1"
         d="m 693,2850 2720,0 0,2058 -2720,0 0,-2058 z" /><path
         id="path188"
         style="fill:none;stroke:#000000;stroke-width:5;stroke-linecap:butt;stroke-linejoin:miter;stroke-miterlimit:10;stroke-dasharray:none;stroke-opacity:1"
         d="m 561,330 31.5,0 m 2820.5,0 -31.5,0" /><g
         transform="scale(10,10)"
         id="g190"><text
           id="text192"
           style="font-variant:normal;font-weight:normal;font-size:11px;font-family:Helvetica;-inkscape-font-specification:Helvetica;writing-mode:lr-tb;fill:#000000;fill-opacity:1;fill-rule:nonzero;stroke:none"
           transform="matrix(1,0,0,-1,27.4902,29.3352)"><tspan
             id="tspan194"
             y="0"
             x="0 3.6630001 9.7790003 15.895">-150</tspan></text>
</g><path
         id="path196"
         style="fill:none;stroke:#000000;stroke-width:5;stroke-linecap:butt;stroke-linejoin:miter;stroke-miterlimit:10;stroke-dasharray:none;stroke-opacity:1"
         d="m 561,741.5 31.5,0 m 2820.5,0 -31.5,0" /><g
         transform="scale(10,10)"
         id="g198"><text
           id="text200"
           style="font-variant:normal;font-weight:normal;font-size:11px;font-family:Helvetica;-inkscape-font-specification:Helvetica;writing-mode:lr-tb;fill:#000000;fill-opacity:1;fill-rule:nonzero;stroke:none"
           transform="matrix(1,0,0,-1,43.3846,70.4852)"><tspan
             id="tspan202"
             y="0"
             x="0">0</tspan></text>
</g><path
         id="path204"
         style="fill:none;stroke:#000000;stroke-width:5;stroke-linecap:butt;stroke-linejoin:miter;stroke-miterlimit:10;stroke-dasharray:none;stroke-opacity:1"
         d="m 561,1153 31.5,0 m 2820.5,0 -31.5,0" /><g
         transform="scale(10,10)"
         id="g206"><text
           id="text208"
           style="font-variant:normal;font-weight:normal;font-size:11px;font-family:Helvetica;-inkscape-font-specification:Helvetica;writing-mode:lr-tb;fill:#000000;fill-opacity:1;fill-rule:nonzero;stroke:none"
           transform="matrix(1,0,0,-1,31.1533,111.635)"><tspan
             id="tspan210"
             y="0"
             x="0 6.1160002 12.232">150</tspan></text>
</g><path
         id="path212"
         style="fill:none;stroke:#000000;stroke-width:5;stroke-linecap:butt;stroke-linejoin:miter;stroke-miterlimit:10;stroke-dasharray:none;stroke-opacity:1"
         d="m 561,1565 31.5,0 m 2820.5,0 -31.5,0" /><g
         transform="scale(10,10)"
         id="g214"><text
           id="text216"
           style="font-variant:normal;font-weight:normal;font-size:11px;font-family:Helvetica;-inkscape-font-specification:Helvetica;writing-mode:lr-tb;fill:#000000;fill-opacity:1;fill-rule:nonzero;stroke:none"
           transform="matrix(1,0,0,-1,31.1533,152.835)"><tspan
             id="tspan218"
             y="0"
             x="0 6.1160002 12.232">300</tspan></text>
</g><path
         id="path220"
         style="fill:none;stroke:#000000;stroke-width:5;stroke-linecap:butt;stroke-linejoin:miter;stroke-miterlimit:10;stroke-dasharray:none;stroke-opacity:1"
         d="m 561,1976.5 31.5,0 m 2820.5,0 -31.5,0" /><g
         transform="scale(10,10)"
         id="g222"><text
           id="text224"
           style="font-variant:normal;font-weight:normal;font-size:11px;font-family:Helvetica;-inkscape-font-specification:Helvetica;writing-mode:lr-tb;fill:#000000;fill-opacity:1;fill-rule:nonzero;stroke:none"
           transform="matrix(1,0,0,-1,31.1533,193.985)"><tspan
             id="tspan226"
             y="0"
             x="0 6.1160002 12.232">450</tspan></text>
</g><path
         id="path228"
         style="fill:none;stroke:#000000;stroke-width:5;stroke-linecap:butt;stroke-linejoin:miter;stroke-miterlimit:10;stroke-dasharray:none;stroke-opacity:1"
         d="m 561,2388 31.5,0 m 2820.5,0 -31.5,0" /><g
         transform="scale(10,10)"
         id="g230"><text
           id="text232"
           style="font-variant:normal;font-weight:normal;font-size:11px;font-family:Helvetica;-inkscape-font-specification:Helvetica;writing-mode:lr-tb;fill:#000000;fill-opacity:1;fill-rule:nonzero;stroke:none"
           transform="matrix(1,0,0,-1,31.1533,235.135)"><tspan
             id="tspan234"
             y="0"
             x="0 6.1160002 12.232">600</tspan></text>
</g><path
         id="path236"
         style="fill:none;stroke:#000000;stroke-width:5;stroke-linecap:butt;stroke-linejoin:miter;stroke-miterlimit:10;stroke-dasharray:none;stroke-opacity:1"
         d="m 561,330 0,31.5 m 0,2026.5 0,-31.5" /><g
         transform="scale(10,10)"
         id="g238"><text
           id="text240"
           style="font-variant:normal;font-weight:normal;font-size:11px;font-family:Helvetica;-inkscape-font-specification:Helvetica;writing-mode:lr-tb;fill:#000000;fill-opacity:1;fill-rule:nonzero;stroke:none"
           transform="matrix(1,0,0,-1,54.5713,18.3352)"><tspan
             id="tspan242"
             y="0"
             x="0">0</tspan></text>
</g><path
         id="path244"
         style="fill:none;stroke:#000000;stroke-width:5;stroke-linecap:butt;stroke-linejoin:miter;stroke-miterlimit:10;stroke-dasharray:none;stroke-opacity:1"
         d="m 1240,330 0,31.5 m 0,2026.5 0,-31.5" /><g
         transform="scale(10,10)"
         id="g246"><text
           id="text248"
           style="font-variant:normal;font-weight:normal;font-size:11px;font-family:Helvetica;-inkscape-font-specification:Helvetica;writing-mode:lr-tb;fill:#000000;fill-opacity:1;fill-rule:nonzero;stroke:none"
           transform="matrix(1,0,0,-1,122.471,18.3352)"><tspan
             id="tspan250"
             y="0"
             x="0">5</tspan></text>
</g><path
         id="path252"
         style="fill:none;stroke:#000000;stroke-width:5;stroke-linecap:butt;stroke-linejoin:miter;stroke-miterlimit:10;stroke-dasharray:none;stroke-opacity:1"
         d="m 1919,330 0,31.5 m 0,2026.5 0,-31.5" /><g
         transform="scale(10,10)"
         id="g254"><text
           id="text256"
           style="font-variant:normal;font-weight:normal;font-size:11px;font-family:Helvetica;-inkscape-font-specification:Helvetica;writing-mode:lr-tb;fill:#000000;fill-opacity:1;fill-rule:nonzero;stroke:none"
           transform="matrix(1,0,0,-1,187.313,18.3352)"><tspan
             id="tspan258"
             y="0"
             x="0 6.1160002">10</tspan></text>
</g><path
         id="path260"
         style="fill:none;stroke:#000000;stroke-width:5;stroke-linecap:butt;stroke-linejoin:miter;stroke-miterlimit:10;stroke-dasharray:none;stroke-opacity:1"
         d="m 2598,330 0,31.5 m 0,2026.5 0,-31.5" /><g
         transform="scale(10,10)"
         id="g262"><text
           id="text264"
           style="font-variant:normal;font-weight:normal;font-size:11px;font-family:Helvetica;-inkscape-font-specification:Helvetica;writing-mode:lr-tb;fill:#000000;fill-opacity:1;fill-rule:nonzero;stroke:none"
           transform="matrix(1,0,0,-1,255.213,18.3352)"><tspan
             id="tspan266"
             y="0"
             x="0 6.1160002">15</tspan></text>
</g><path
         id="path268"
         style="fill:none;stroke:#000000;stroke-width:5;stroke-linecap:butt;stroke-linejoin:miter;stroke-miterlimit:10;stroke-dasharray:none;stroke-opacity:1"
         d="m 3277,330 0,31.5 m 0,2026.5 0,-31.5" /><g
         transform="scale(10,10)"
         id="g270"><text
           id="text272"
           style="font-variant:normal;font-weight:normal;font-size:11px;font-family:Helvetica;-inkscape-font-specification:Helvetica;writing-mode:lr-tb;fill:#000000;fill-opacity:1;fill-rule:nonzero;stroke:none"
           transform="matrix(1,0,0,-1,323.113,18.3352)"><tspan
             id="tspan274"
             y="0"
             x="0 6.1160002">20</tspan></text>
</g><path
         id="path276"
         style="fill:none;stroke:#000000;stroke-width:5;stroke-linecap:butt;stroke-linejoin:miter;stroke-miterlimit:10;stroke-dasharray:none;stroke-opacity:1"
         d="m 561,330 2852,0 0,2058 -2852,0 0,-2058 z" /><g
         transform="scale(10,10)"
         id="g278"><text
           id="text280"
           style="font-variant:normal;font-weight:normal;font-size:15px;font-family:Helvetica;-inkscape-font-specification:Helvetica;writing-mode:lr-tb;fill:#000000;fill-opacity:1;fill-rule:nonzero;stroke:none"
           transform="matrix(0,1,1,0,14.5,34.3496)"><tspan
             id="tspan282"
             y="0"
             x="0 10.83 19.17 31.665001 40.005001 43.334999 51.674999 55.845001 59.174999 66.675003 75.014999 79.184998">Cumulative: </tspan></text>
<text
           id="text284"
           style="font-variant:normal;font-weight:normal;font-size:15px;font-family:Symbol;-inkscape-font-specification:Symbol;writing-mode:lr-tb;fill:#000000;fill-opacity:1;fill-rule:nonzero;stroke:none"
           transform="matrix(0,1,1,0,14.5,117.7047)"><tspan
             id="tspan286"
             y="0"
             x="0">Σ</tspan></text>
<text
           id="text288"
           style="font-variant:normal;font-weight:normal;font-size:15px;font-family:Helvetica;-inkscape-font-specification:Helvetica;writing-mode:lr-tb;fill:#000000;fill-opacity:1;fill-rule:nonzero;stroke:none"
           transform="matrix(0,1,1,0,14.5,130.75478)"><tspan
             id="tspan290"
             y="0"
             x="0 3.3299999 11.67 20.01">logP</tspan></text>
<text
           id="text292"
           style="font-variant:normal;font-weight:normal;font-size:12px;font-family:Helvetica;-inkscape-font-specification:Helvetica;writing-mode:lr-tb;fill:#000000;fill-opacity:1;fill-rule:nonzero;stroke:none"
           transform="matrix(0,1,1,0,19,160.76998)"><tspan
             id="tspan294"
             y="0"
             x="0 9.9960003">M1</tspan></text>
<text
           id="text296"
           style="font-variant:normal;font-weight:normal;font-size:15px;font-family:Helvetica;-inkscape-font-specification:Helvetica;writing-mode:lr-tb;fill:#000000;fill-opacity:1;fill-rule:nonzero;stroke:none"
           transform="matrix(0,1,1,0,14.5,177.43798)"><tspan
             id="tspan298"
             y="0"
             x="0 4.9949999 9.165 12.495 20.834999 29.174999">- logP</tspan></text>
<text
           id="text300"
           style="font-variant:normal;font-weight:normal;font-size:12px;font-family:Helvetica;-inkscape-font-specification:Helvetica;writing-mode:lr-tb;fill:#000000;fill-opacity:1;fill-rule:nonzero;stroke:none"
           transform="matrix(0,1,1,0,19,216.61808)"><tspan
             id="tspan302"
             y="0"
             x="0 9.9960003">M2</tspan></text>
<text
           id="text304"
           style="font-variant:normal;font-weight:normal;font-size:15px;font-family:Helvetica;-inkscape-font-specification:Helvetica;writing-mode:lr-tb;fill:#000000;fill-opacity:1;fill-rule:nonzero;stroke:none"
           transform="matrix(1,0,0,-1,149.104,0.5)"><tspan
             id="tspan306"
             y="0"
             x="0 4.1700001 16.665001 25.004999 33.345001 41.685001 45.855 56.685001 65.025002 77.519997 85.860001 94.199997">Image Number</tspan></text>
</g><path
         id="path308"
         style="fill:none;stroke:#ff0000;stroke-width:12.5;stroke-linecap:butt;stroke-linejoin:miter;stroke-miterlimit:10;stroke-dasharray:none;stroke-opacity:1"
         d="m 561,677 26,-6.5 26,-6.5 26,-6 26.5,-5 26,-5 26,-4 26,-5 26,-7.5 26,-12.5 26,-19.5 26,-28 26.5,-35 26,-36.5 26,-32.5 26,-23.5 26,-9 26,6.5 26,17.5 26,23 26.5,23 26,18.5 26,10 26,4.5 26,1.5 26,0.5 26,3.5 26,8.5 26.5,12.5 26,16.5 26,18.5 26,20 26,20.5 26,23 26,28.5 26.5,37 26,49.5 26,64 26,76 26,78.5 26,71.5 26,55.5 26,30.5 26.5,3 26,-12.5 26,-16 26,-7 26,13 26,41 26,57 26,61 26.5,50.5 26,27.5 26,-7 26,-34 26,-49 26,-51.5 26,-41.5 26,-21 26.5,2 26,18.5 26,30.5 26,36.5 26,37.5 26,35.5 26,32 26.5,28 26,22 26,16 26,9.5 26,4.5 26,1 26,-1 26,-0.5 26.5,0 26,1.5 26,2 26,2 26,2 26,1 26,0.5 26,2 26.5,3.5 26,7 26,10.5 26,13 26,12 26,7.5 26,0 26,-11.5 26.5,-22.5 26,-31.5 26,-36.5 26,-38.5 26,-37.5 26,-34.5 26,-32 26.5,-29.5 26,-28 26,-28" /><path
         id="path310"
         style="fill:none;stroke:#00ff00;stroke-width:2.5;stroke-linecap:butt;stroke-linejoin:miter;stroke-miterlimit:10;stroke-dasharray:none;stroke-opacity:1"
         d="m 561,741.5 2852,0" /><path
         id="path312"
         style="fill:none;stroke:#0000ff;stroke-width:12.5;stroke-linecap:butt;stroke-linejoin:miter;stroke-miterlimit:10;stroke-dasharray:none;stroke-opacity:1"
         d="m 561,657 26,-13.5 26,-13 26,-12.5 26.5,-11.5 26,-10.5 26,-9.5 26,-8 26,-7 26,-6 26,-6 26,-5.5 26.5,-4.5 26,-2 26,2 26,7.5 26,15 26,22 26,27.5 26,31.5 26.5,33 26,33 26,31.5 26,30 26,28.5 26,27 26,25.5 26,24 26.5,24 26,23.5 26,24.5 26,26 26,29 26,32.5 26,38.5 26.5,46.5 26,56.5 26,68 26,75.5 26,74.5 26,63.5 26,44 26,14.5 26.5,-15 26,-30 26,-30.5 26,-15 26,15.5 26,54 26,77 26,82 26.5,67 26,34 26,-14 26,-52 26,-72.5 26,-75.5 26,-60.5 26,-29 26.5,3 26,27.5 26,42.5 26,49.5 26,47.5 26,42 26,36.5 26.5,30.5 26,26 26,21.5 26,17.5 26,13.5 26,10.5 26,7.5 26,5 26.5,3 26,3 26,3.5 26,6.5 26,11 26,16 26,20.5 26,23 26.5,23 26,21 26,17.5 26,12.5 26,7.5 26,2 26,-4 26,-11 26.5,-16 26,-18 26,-18 26,-14.5 26,-8 26,0 26,7 26.5,11.5 26,15.5 26,17" /><path
         id="path314"
         style="fill:none;stroke:#000000;stroke-width:5;stroke-linecap:butt;stroke-linejoin:miter;stroke-miterlimit:10;stroke-dasharray:none;stroke-opacity:1"
         d="m 561,330 2852,0 0,2058 -2852,0 0,-2058 z" /></g></g></svg>